<svg xmlns="http://www.w3.org/2000/svg" data-name="Layer 106" viewBox="0 0 108 135" x="0px" y="0px"><path d="M45,103.5A40.55,40.55,0,0,0,85.5,63,4.49,4.49,0,0,0,81,58.5H49.5V27A4.49,4.49,0,0,0,45,22.5a40.5,40.5,0,0,0,0,81ZM40.5,31.82V63A4.49,4.49,0,0,0,45,67.5H76.18A31.5,31.5,0,1,1,40.5,31.82Z"/><path d="M63,4.5A4.49,4.49,0,0,0,58.5,9V45A4.49,4.49,0,0,0,63,49.5H99a4.49,4.49,0,0,0,4.5-4.5A40.55,40.55,0,0,0,63,4.5Zm4.5,36V13.82A31.58,31.58,0,0,1,94.18,40.5Z"/><text x="0" y="123" fill="#000000" font-size="5px" font-weight="bold" font-family="'Helvetica Neue', Helvetica, Arial-Unicode, Arial, Sans-serif">Created by Syawaluddin</text><text x="0" y="128" fill="#000000" font-size="5px" font-weight="bold" font-family="'Helvetica Neue', Helvetica, Arial-Unicode, Arial, Sans-serif">from the Noun Project</text></svg>