<svg xmlns="http://www.w3.org/2000/svg" viewBox="0 0 32 40" x="0px" y="0px"><title>50 Love</title><g><path d="M24.67,12.23a1.51,1.51,0,0,0-.13-.33,5.75,5.75,0,0,0-.73-1.2l0,0A4.93,4.93,0,0,0,20,8.9a5,5,0,0,0-4,2,5,5,0,0,0-7.78-.21l-.05.06a6,6,0,0,0-.7,1.15,1.34,1.34,0,0,0-.12.31l-.08.2c-2,6,7.78,12.3,8.2,12.57a1,1,0,0,0,1.06,0c.42-.27,10.21-6.52,8.2-12.55A.57.57,0,0,0,24.67,12.23ZM16,22.91C13.28,21.06,8,16.56,9.19,13a1.7,1.7,0,0,0,.09-.24,3.6,3.6,0,0,1,.4-.69L9.75,12a3,3,0,0,1,5.17,1.24,1.11,1.11,0,0,0,2.16,0A3,3,0,0,1,22.26,12a3.22,3.22,0,0,1,.46.75,1.11,1.11,0,0,0,.07.16l0,.13C24,16.56,18.72,21.05,16,22.91ZM16,1A15,15,0,1,0,31,16,15,15,0,0,0,16,1Zm0,28A13,13,0,1,1,29,16,13,13,0,0,1,16,29Z"/></g><text x="0" y="47" fill="#000000" font-size="5px" font-weight="bold" font-family="'Helvetica Neue', Helvetica, Arial-Unicode, Arial, Sans-serif">Created by Ricons</text><text x="0" y="52" fill="#000000" font-size="5px" font-weight="bold" font-family="'Helvetica Neue', Helvetica, Arial-Unicode, Arial, Sans-serif">from the Noun Project</text></svg>